<svg version="1.1" id="Layer_1" xmlns="http://www.w3.org/2000/svg" xmlns:xlink="http://www.w3.org/1999/xlink" x="0px" y="0px"
	 width="100%" viewBox="0 0 1024 1024" enable-background="new 0 0 1024 1024" xml:space="preserve">
<path fill="#000000" opacity="1.000000" stroke="none" 
	d="
M346.076965,267.967834 
	C345.984039,252.142303 346.006653,236.809586 345.724487,221.482498 
	C345.649353,217.400345 346.759979,215.999359 351.059692,215.997620 
	C410.551178,215.973557 470.047028,216.158066 529.532349,215.471344 
	C565.189758,215.059677 600.834229,216.383224 636.479187,215.528046 
	C649.793030,215.208618 663.123230,216.410095 676.417725,215.014023 
	C681.087341,214.523666 681.358765,217.362473 681.356018,220.965668 
	C681.301636,292.121521 681.312378,363.277374 681.325623,434.433258 
	C681.336975,495.759064 681.359436,557.084839 681.396667,618.410645 
	C681.405212,632.552368 682.696838,646.737915 680.396423,660.805115 
	C677.983154,675.561890 674.759094,690.045532 668.825867,703.963196 
	C665.228882,712.400818 660.968689,720.496826 656.865906,728.612305 
	C652.028259,738.181152 645.125183,746.593933 638.068054,754.821106 
	C612.305847,784.854858 578.170532,798.533264 540.386780,804.061707 
	C491.353058,811.236145 446.483917,799.464050 406.279877,770.669739 
	C391.469238,760.062378 380.286407,745.873840 371.096619,730.198914 
	C356.773621,705.768555 348.948395,679.445862 347.484314,651.080811 
	C346.005432,622.429626 347.220398,593.775269 346.588776,565.130127 
	C346.346466,554.139099 345.996124,543.150513 345.714020,532.160339 
	C345.663727,530.201233 345.706879,528.239685 345.706879,526.735962 
	C347.194489,525.377991 348.406067,525.707520 349.539703,525.708740 
	C370.870300,525.732056 392.201904,525.655579 413.531189,525.839905 
	C428.850433,525.972290 444.166199,526.640930 459.484497,526.678894 
	C464.505371,526.691345 466.230011,528.408997 466.201874,533.347778 
	C466.065979,557.177246 466.162598,581.008118 466.179291,604.838440 
	C466.190125,620.335327 466.568787,635.814148 470.595734,650.907654 
	C476.311462,672.330872 491.724060,685.152832 512.096985,685.661987 
	C531.785095,686.154114 549.522034,672.866516 556.134460,652.775635 
	C558.496582,645.598694 559.828064,638.248535 559.826721,630.722717 
	C559.816528,575.730469 560.170166,520.732483 559.458618,465.748627 
	C559.158997,442.595947 559.399963,419.427368 558.611328,396.289215 
	C557.969604,377.462769 557.879639,358.645813 558.090881,339.824707 
	C558.147217,334.808807 556.461182,333.207397 551.450623,333.216644 
	C485.292603,333.338562 419.134216,333.282318 352.975922,333.288544 
	C345.475403,333.289246 345.269958,333.323425 345.859650,325.891174 
	C347.378571,306.746948 346.505951,287.606842 346.076965,267.967834 
z"/>
</svg>